<svg width="41" height="54" viewBox="0 0 41 54" fill="none" xmlns="http://www.w3.org/2000/svg">
<path d="M33.0622 4.64604C33.6768 3.21896 33.2185 1.55229 31.9581 0.635627C30.6977 -0.28104 28.9789 -0.197707 27.8018 0.823127L1.13516 24.1565C0.093492 25.0731 -0.271091 26.5419 0.208075 27.844C0.687242 29.146 1.94766 30.0002 3.33308 30.0002H14.9477L6.93724 48.6877C6.32266 50.1148 6.78099 51.7815 8.04141 52.6981C9.30182 53.6148 11.0206 53.5315 12.1977 52.5106L38.8643 29.1773C39.906 28.2606 40.281 26.7919 39.7914 25.5002C39.3018 24.2085 38.0622 23.344 36.6664 23.344H25.0518L33.0622 4.64604Z" fill="#252A2F"/>
</svg>
