<svg width="39" height="37" viewBox="0 0 39 37" fill="none" xmlns="http://www.w3.org/2000/svg">
<path d="M13.3342 29.048C13.3342 29.1972 13.1615 29.3165 12.9437 29.3165C12.6959 29.3389 12.5231 29.2196 12.5231 29.048C12.5231 28.8988 12.6959 28.7794 12.9137 28.7794C13.139 28.7571 13.3342 28.8764 13.3342 29.048ZM10.9986 28.7123C10.946 28.8615 11.0962 29.0331 11.3215 29.0778C11.5168 29.1524 11.7421 29.0778 11.7871 28.9286C11.8322 28.7794 11.6895 28.6079 11.4642 28.5407C11.269 28.4885 11.0512 28.5631 10.9986 28.7123ZM14.318 28.5855C14.1003 28.6377 13.9501 28.7794 13.9726 28.951C13.9951 29.1002 14.1904 29.1972 14.4157 29.145C14.6335 29.0927 14.7837 28.951 14.7611 28.8018C14.7386 28.6601 14.5358 28.5631 14.318 28.5855ZM19.2597 0C8.8432 0 0.875 7.85504 0.875 18.2016C0.875 26.4744 6.11704 33.5536 13.6046 36.0452C14.5659 36.2167 14.9038 35.6274 14.9038 35.1425C14.9038 34.68 14.8813 32.1288 14.8813 30.5623C14.8813 30.5623 9.62424 31.6813 8.52026 28.3393C8.52026 28.3393 7.66411 26.1685 6.43246 25.6091C6.43246 25.6091 4.71265 24.4379 6.55262 24.4603C6.55262 24.4603 8.42263 24.6095 9.45151 26.3849C11.0962 29.2643 13.8524 28.4363 14.9264 27.944C15.0991 26.7504 15.5872 25.9224 16.128 25.43C11.9298 24.9675 7.69415 24.3633 7.69415 17.1871C7.69415 15.1357 8.26492 14.1063 9.46653 12.7933C9.27127 12.3085 8.63291 10.3093 9.66179 7.72823C11.2314 7.24335 14.8438 9.74234 14.8438 9.74234C16.3458 9.3246 17.9604 9.10827 19.5601 9.10827C21.1597 9.10827 22.7744 9.3246 24.2764 9.74234C24.2764 9.74234 27.8888 7.23589 29.4584 7.72823C30.4872 10.3167 29.8489 12.3085 29.6536 12.7933C30.8552 14.1137 31.5912 15.1431 31.5912 17.1871C31.5912 24.3857 27.1678 24.9601 22.9697 25.43C23.6606 26.0194 24.2464 27.1383 24.2464 28.8913C24.2464 31.4052 24.2238 34.5159 24.2238 35.1276C24.2238 35.6125 24.5693 36.2018 25.5231 36.0302C33.0332 33.5536 38.125 26.4744 38.125 18.2016C38.125 7.85504 29.6762 0 19.2597 0ZM8.1748 25.7284C8.07717 25.803 8.0997 25.9746 8.22737 26.1163C8.34753 26.2357 8.52026 26.2879 8.61789 26.1909C8.71552 26.1163 8.69299 25.9448 8.56532 25.803C8.44516 25.6837 8.27243 25.6315 8.1748 25.7284ZM7.36371 25.1242C7.31114 25.2212 7.38624 25.3405 7.53644 25.4151C7.6566 25.4897 7.8068 25.4673 7.85938 25.3629C7.91195 25.2659 7.83684 25.1466 7.68664 25.072C7.53644 25.0272 7.41628 25.0496 7.36371 25.1242ZM9.79698 27.7798C9.67682 27.8768 9.72188 28.1006 9.89461 28.2423C10.0673 28.4139 10.2851 28.4363 10.3828 28.3169C10.4804 28.22 10.4353 27.9962 10.2851 27.8544C10.1199 27.6829 9.89461 27.6605 9.79698 27.7798ZM8.94083 26.6833C8.82067 26.7579 8.82067 26.9518 8.94083 27.1234C9.06099 27.295 9.26376 27.3696 9.36139 27.295C9.48155 27.198 9.48155 27.004 9.36139 26.8325C9.25625 26.6609 9.06099 26.5863 8.94083 26.6833Z" fill="#252A2F"/>
</svg>
