<svg width="38" height="37" viewBox="0 0 38 37" fill="none" xmlns="http://www.w3.org/2000/svg">
<path d="M19.3792 9.01166C14.0939 9.01166 9.83086 13.2461 9.83086 18.4959C9.83086 23.7456 14.0939 27.9801 19.3792 27.9801C24.6644 27.9801 28.9275 23.7456 28.9275 18.4959C28.9275 13.2461 24.6644 9.01166 19.3792 9.01166ZM19.3792 24.6619C15.9637 24.6619 13.1715 21.8967 13.1715 18.4959C13.1715 15.0951 15.9554 12.3299 19.3792 12.3299C22.8029 12.3299 25.5868 15.0951 25.5868 18.4959C25.5868 21.8967 22.7946 24.6619 19.3792 24.6619ZM31.5451 8.6237C31.5451 9.8536 30.5479 10.8359 29.318 10.8359C28.0798 10.8359 27.0909 9.84534 27.0909 8.6237C27.0909 7.40206 28.0881 6.41154 29.318 6.41154C30.5479 6.41154 31.5451 7.40206 31.5451 8.6237ZM37.8691 10.8689C37.7278 7.90558 37.0464 5.2807 34.8609 3.11807C32.6836 0.955438 30.041 0.278583 27.0577 0.130006C23.9829 -0.0433352 14.7671 -0.0433352 11.6923 0.130006C8.7173 0.270329 6.07469 0.947183 3.88914 3.10982C1.70358 5.27245 1.03047 7.89732 0.880884 10.8606C0.706372 13.9147 0.706372 23.0688 0.880884 26.1229C1.02216 29.0862 1.70358 31.711 3.88914 33.8737C6.07469 36.0363 8.70899 36.7132 11.6923 36.8617C14.7671 37.0351 23.9829 37.0351 27.0577 36.8617C30.041 36.7214 32.6836 36.0446 34.8609 33.8737C37.0381 31.711 37.7195 29.0862 37.8691 26.1229C38.0436 23.0688 38.0436 13.923 37.8691 10.8689ZM33.8969 29.3998C33.2487 31.0177 31.9939 32.2641 30.3568 32.9162C27.9053 33.8819 22.0882 33.6591 19.3792 33.6591C16.6701 33.6591 10.8447 33.8737 8.40152 32.9162C6.77274 32.2723 5.51792 31.0259 4.86142 29.3998C3.88914 26.9648 4.11351 21.1868 4.11351 18.4959C4.11351 15.805 3.89745 10.0187 4.86142 7.59191C5.50961 5.97407 6.76443 4.72766 8.40152 4.07557C10.853 3.10982 16.6701 3.33268 19.3792 3.33268C22.0882 3.33268 27.9136 3.11807 30.3568 4.07557C31.9856 4.71941 33.2404 5.96581 33.8969 7.59191C34.8692 10.0269 34.6448 15.805 34.6448 18.4959C34.6448 21.1868 34.8692 26.9731 33.8969 29.3998Z" fill="#252A2F"/>
</svg>
