<svg width="38" height="37" viewBox="0 0 38 37" fill="none" xmlns="http://www.w3.org/2000/svg">
<path d="M18.625 0C8.33867 0 0 8.2827 0 18.5C0 28.7173 8.33867 37 18.625 37C28.9113 37 37.25 28.7173 37.25 18.5C37.25 8.2827 28.9113 0 18.625 0ZM27.258 12.5815C26.9777 15.5068 25.7649 22.6057 25.1477 25.8821C24.8866 27.2684 24.3725 27.7333 23.8748 27.7787C22.7934 27.8776 21.9719 27.0688 20.9244 26.3867C19.2851 25.3193 18.3591 24.6549 16.7678 23.6134C14.929 22.4098 16.1211 21.7485 17.169 20.6668C17.4433 20.3839 22.2088 16.0784 22.301 15.6878C22.3125 15.6389 22.3236 15.4565 22.2144 15.3607C22.1052 15.265 21.9448 15.2974 21.8287 15.3234C21.6644 15.3605 19.0456 17.0798 13.9726 20.4812C13.2293 20.9882 12.5561 21.2352 11.9528 21.2223C11.2878 21.208 10.0086 20.8488 9.05761 20.5417C7.89122 20.1651 6.96417 19.9661 7.04491 19.3265C7.08696 18.9933 7.54883 18.6526 8.43052 18.3045C13.8601 15.9548 17.4807 14.4057 19.2922 13.6571C24.4645 11.5201 25.5393 11.1489 26.2398 11.1366C26.394 11.134 26.7384 11.1719 26.9616 11.3518C27.11 11.4799 27.2046 11.6587 27.2267 11.8528C27.2645 12.0937 27.275 12.3382 27.258 12.5815Z" fill="#252A2F"/>
</svg>
