<svg width="50" height="50" viewBox="0 0 50 50" fill="none" xmlns="http://www.w3.org/2000/svg">
<path d="M23.8086 33.1836C22.7441 34.248 21.0059 34.248 19.9414 33.1836L13.6914 26.9336C12.627 25.8691 12.627 24.1309 13.6914 23.0664C14.7559 22.002 16.4941 22.002 17.5586 23.0664L21.875 27.3828L32.4414 16.8164C33.5059 15.752 35.2441 15.752 36.3086 16.8164C37.373 17.8809 37.373 19.6191 36.3086 20.6836L23.8086 33.1836ZM50 25C50 38.8086 38.8086 50 25 50C11.1914 50 0 38.8086 0 25C0 11.1914 11.1914 0 25 0C38.8086 0 50 11.1914 50 25ZM25 4.6875C13.7793 4.6875 4.6875 13.7793 4.6875 25C4.6875 36.2207 13.7793 45.3125 25 45.3125C36.2207 45.3125 45.3125 36.2207 45.3125 25C45.3125 13.7793 36.2207 4.6875 25 4.6875Z" fill="#DADADA"/>
</svg>
