<svg width="30" height="31" viewBox="0 0 30 31" fill="none" xmlns="http://www.w3.org/2000/svg">
<path d="M15.8784 13.039L0.426368 28.485C-0.142123 29.0535 -0.142123 29.9728 0.426368 30.5352C0.994859 31.0977 1.91412 31.1037 2.47656 30.5352L5.9238 27.088H10.0363C13.042 27.088 15.9571 26.2171 18.4427 24.6084C19.114 24.173 18.7753 23.2174 17.971 23.2174C17.6625 23.2174 17.4146 22.9695 17.4146 22.661C17.4146 22.4131 17.5779 22.2014 17.8077 22.1288L22.7064 20.6592C22.8576 20.6108 22.9967 20.5322 23.1116 20.4173L24.4663 19.0626C25.0771 18.4518 24.6417 17.4116 23.7829 17.4116H21.8355C21.5271 17.4116 21.2791 17.1636 21.2791 16.8552C21.2791 16.6072 21.4424 16.3955 21.6722 16.323L28.4457 14.2909C28.6876 14.2183 28.8933 14.055 29.0082 13.8252C29.6613 12.5552 30 11.134 30 9.67644C30 7.19686 29.0142 4.82008 27.2604 3.06622L26.9277 2.7336C25.1799 0.985788 22.8031 0 20.3236 0C17.844 0 15.4672 0.985788 13.7133 2.73964L7.44179 9.01119C4.53886 11.9141 2.90596 15.8512 2.90596 19.9577V23.3021L14.3725 11.8415C14.7475 11.4666 15.3644 11.4666 15.7393 11.8415C16.0659 12.1681 16.1083 12.664 15.8724 13.039H15.8784Z" fill="black" fill-opacity="0.8"/>
</svg>
