<svg width="65" height="64" viewBox="0 0 65 64" fill="none" xmlns="http://www.w3.org/2000/svg">
<path d="M0.714294 0V64H64.7143V0H0.714294ZM35.5429 49.9143C35.5429 56.1429 31.8857 58.9857 26.5572 58.9857C21.7429 58.9857 18.9572 56.5 17.5286 53.4857L22.4286 50.5286C23.3714 52.2 24.2286 53.6143 26.3 53.6143C28.2714 53.6143 29.5286 52.8429 29.5286 49.8286V29.3857H35.5429V49.9143ZM49.7714 58.9857C44.1857 58.9857 40.5714 56.3286 38.8143 52.8429L43.7143 50.0143C45 52.1143 46.6857 53.6714 49.6429 53.6714C52.1286 53.6714 53.7286 52.4286 53.7286 50.7C53.7286 48.6429 52.1 47.9143 49.3429 46.7L47.8429 46.0571C43.5 44.2143 40.6286 41.8857 40.6286 36.9857C40.6286 32.4714 44.0714 29.0429 49.4286 29.0429C53.2572 29.0429 56 30.3714 57.9714 33.8571L53.2857 36.8571C52.2572 35.0143 51.1429 34.2857 49.4143 34.2857C47.6572 34.2857 46.5429 35.4 46.5429 36.8571C46.5429 38.6571 47.6572 39.3857 50.2429 40.5143L51.7429 41.1571C56.8572 43.3429 59.7286 45.5857 59.7286 50.6143C59.7286 56.0143 55.4714 58.9857 49.7714 58.9857Z" fill="#DADADA"/>
</svg>
