<svg width="63" height="64" viewBox="0 0 63 64" fill="none" xmlns="http://www.w3.org/2000/svg">
<path d="M62.821 14.4789C62.8112 14.4499 62.7995 14.4215 62.786 14.3939C62.7681 14.3402 62.7459 14.2879 62.7197 14.2377C62.6995 14.2065 62.6769 14.1768 62.6522 14.1489C62.6247 14.1079 62.5947 14.0687 62.5622 14.0314C62.5335 14.0039 62.4972 13.9814 62.466 13.9564C62.4303 13.9257 62.3928 13.8973 62.3535 13.8714L50.321 6.94395C50.169 6.85618 49.9966 6.80998 49.821 6.80998C49.6455 6.80998 49.473 6.85618 49.321 6.94395L37.2861 13.8752C37.2475 13.9014 37.2107 13.9302 37.1761 13.9614C37.142 13.9843 37.1094 14.0094 37.0786 14.0364C37.0458 14.073 37.0158 14.1118 36.9886 14.1527C36.9673 14.1827 36.9398 14.2089 36.9211 14.2414C36.8958 14.2919 36.8741 14.3441 36.8561 14.3977C36.8461 14.4264 36.8298 14.4527 36.8211 14.4827C36.7982 14.5675 36.7864 14.6549 36.7861 14.7427V27.8976L26.7586 33.6714V7.9302C26.7588 7.84193 26.747 7.75405 26.7236 7.66895C26.7161 7.63895 26.6986 7.6127 26.6886 7.58395C26.6711 7.53062 26.6494 7.47879 26.6236 7.42895C26.6061 7.39645 26.5774 7.3702 26.5561 7.33895C26.5286 7.29792 26.4986 7.25868 26.4661 7.22145C26.4349 7.19478 26.4024 7.16974 26.3686 7.14645C26.3336 7.11606 26.2969 7.08768 26.2586 7.06145L14.2224 0.133974C14.0704 0.0462061 13.8979 0 13.7224 0C13.5469 0 13.3744 0.0462061 13.2224 0.133974L1.18869 7.06145C1.14962 7.087 1.11282 7.11585 1.07869 7.1477C1.04422 7.17058 1.01124 7.19563 0.979942 7.2227C0.947612 7.25927 0.917952 7.29812 0.891192 7.33895C0.868692 7.3702 0.841192 7.39645 0.822442 7.42895C0.796827 7.47871 0.7755 7.53057 0.758692 7.58395C0.74504 7.61116 0.732937 7.63912 0.722443 7.6677C0.699446 7.75331 0.687681 7.84155 0.687443 7.9302V49.1426C0.686964 49.3186 0.732942 49.4916 0.820734 49.6441C0.908526 49.7966 1.03502 49.9233 1.18744 50.0113L25.2499 63.8663C25.3034 63.8932 25.359 63.9158 25.4161 63.9338C25.4424 63.9438 25.4674 63.9588 25.4949 63.9663C25.6627 64.0112 25.8395 64.0112 26.0074 63.9663C26.0324 63.96 26.0536 63.9463 26.0761 63.9388C26.1365 63.9198 26.195 63.8955 26.2511 63.8663L50.321 50.0113C50.4734 49.9233 50.5999 49.7966 50.6877 49.6441C50.7755 49.4916 50.8215 49.3186 50.821 49.1426V35.9851L62.351 29.3464C62.5043 29.2579 62.6314 29.1302 62.7193 28.9765C62.8071 28.8227 62.8526 28.6484 62.851 28.4714V14.7402C62.8517 14.6522 62.8416 14.5645 62.821 14.4789ZM13.7211 2.16022L23.7449 7.92895L13.7199 13.7014L3.69743 7.9302L13.7211 2.16022ZM24.7524 9.66019V34.8251L18.9361 38.1739L14.7249 40.5988V15.4377L20.5411 12.0889L24.7524 9.66019ZM24.7524 61.2575L2.69244 48.5626V9.66519L6.90367 12.0877L12.7187 15.4377V42.3351C12.7212 42.3729 12.7262 42.4104 12.7337 42.4476C12.7366 42.4972 12.7433 42.5465 12.7537 42.5951C12.7664 42.6338 12.7822 42.6715 12.8012 42.7076C12.8151 42.7507 12.8326 42.7925 12.8537 42.8326C12.8768 42.8665 12.9018 42.8991 12.9287 42.9301C12.9537 42.967 12.9812 43.0021 13.0112 43.0351C13.0399 43.0626 13.0762 43.0826 13.1074 43.1076C13.1415 43.1372 13.1774 43.1648 13.2149 43.1901L24.7386 49.7126L24.7524 61.2575ZM25.7524 47.9863L15.7449 42.3213L26.2561 36.2701L37.7886 29.6314L47.8048 35.3976L40.4548 39.5926L25.7524 47.9863ZM48.8173 48.5576L26.7561 61.2638V49.7251L43.0961 40.4001L48.8173 37.1314V48.5576ZM48.8173 33.6664L44.606 31.2501L38.7898 27.9014V16.4739L43.0011 18.8989L48.8173 22.2502V33.6664ZM49.8173 20.5064L39.7923 14.7352L49.8173 8.9652L59.8397 14.7339L49.8173 20.5064ZM50.8173 33.6664V22.2502L56.646 18.8989L60.856 16.4739V27.8976L50.8173 33.6664Z" fill="#DADADA"/>
</svg>
