<svg width="265" height="98" viewBox="0 0 265 98" fill="none" xmlns="http://www.w3.org/2000/svg">
<path d="M235.512 97.0016C235.043 96.7096 234.661 96.4185 234.662 96.3549C234.662 96.2912 234.852 96.1452 235.083 96.0306C235.447 95.8496 235.588 95.8799 236.151 96.2597C236.528 96.5147 236.911 96.6517 237.068 96.5881C237.216 96.528 238.413 95.8125 239.729 94.9983L242.121 93.5178V87.1797L236.936 83.9849L234.379 85.5385L231.822 87.0921V93.5815L232.749 94.1296C234.219 94.9995 234.238 94.9618 234.336 91.0161L234.417 87.7384L235.309 87.6289V91.1003C235.309 94.512 235.304 94.5801 234.921 95.0547C234.395 95.7082 233.583 95.6975 232.339 95.0208C230.804 94.1854 230.855 94.3357 230.806 90.5401C230.774 88.1171 230.817 87.1051 230.968 86.8001C231.225 86.2766 236.357 83.0842 236.931 83.0909C237.154 83.0935 237.811 83.3904 238.391 83.7508C238.971 84.1111 240.029 84.7583 240.743 85.189C241.456 85.6197 242.241 86.1212 242.486 86.3034L242.932 86.6348V94.0472L242.486 94.3816C242.241 94.5654 240.999 95.3516 239.726 96.1283C237.088 97.7383 236.791 97.7994 235.512 97.0016ZM7.69933 95.5135C7.41278 93.7934 7.38725 93.7314 6.72616 93.1505C2.25127 89.2184 -0.295642 83.5001 0.0274494 78.1101C0.246328 74.4594 0.9965 71.4673 2.42614 68.5434C3.3681 66.6167 5.03375 64.3187 6.37997 63.0886C6.90476 62.6091 7.4251 61.9501 7.57293 61.5778L7.8351 60.9175L8.31406 61.8967C8.57749 62.4352 9.41029 63.5907 10.1647 64.4645C14.2651 69.2133 16.3009 75.2541 15.739 81.0033C15.2674 85.8277 12.8968 90.3908 9.40064 93.2032C8.94198 93.5722 8.81816 93.8368 8.57112 94.976C8.41138 95.7125 8.32555 96.369 8.38038 96.435C8.43518 96.5009 8.39372 96.502 8.28834 96.4375C8.16436 96.3616 8.07842 96.4895 8.04506 96.8C8.01603 97.07 7.86491 96.5073 7.69933 95.5135ZM40.3921 93.4162C37.7043 93.3756 37.2699 93.332 37.2699 93.1012C37.2699 92.5475 37.6019 92.1622 38.079 92.1622C38.7892 92.1622 39.3731 91.8101 39.4947 91.3085C39.5544 91.0624 39.6074 87.9953 39.6125 84.493C39.6231 77.2465 39.7009 77.6475 38.2351 77.3997C37.7709 77.3213 37.3618 77.2256 37.326 77.1873C37.2902 77.1489 37.3341 76.9118 37.4236 76.6599L37.5863 76.2021H41.8591C46.5583 76.2021 47.2265 76.3061 48.4073 77.2211C49.2642 77.885 49.6539 78.7895 49.6559 80.1189C49.658 81.5353 49.0433 82.5853 47.7299 83.4088C47.4839 83.5631 47.599 83.6724 48.5133 84.1539C50.2871 85.0879 51.0001 86.3608 50.8601 88.3438C50.7313 90.1682 49.7339 91.57 47.897 92.5075C46.1923 93.3777 45.2663 93.4898 40.3921 93.4162ZM45.7087 91.9714C46.6643 91.7523 47.5839 90.9866 47.9176 90.1321C48.2707 89.2284 48.1951 87.5117 47.7667 86.7027C47.081 85.4078 46.0226 84.9082 43.6357 84.7529L42.1355 84.6553L42.1361 87.6715C42.1366 90.3639 42.171 90.7479 42.4555 91.247C42.757 91.7759 42.9557 91.8845 43.9196 92.0469C44.6643 92.1723 44.8719 92.1636 45.7087 91.9714ZM46.2246 82.931C47.2131 82.1246 47.3998 80.1817 46.6096 78.9274C46.0878 78.0993 45.1718 77.6311 43.8054 77.4941C42.0914 77.3223 42.1355 77.2386 42.1355 80.6661V83.5264L43.894 83.4619C45.5051 83.4029 45.7004 83.3587 46.2246 82.931ZM19.5907 93.105C19.5907 92.5531 19.9218 92.1623 20.3894 92.1623C20.644 92.1623 21.0247 92.0133 21.2353 91.8308L21.6182 91.4994L21.672 85.2819C21.7082 81.0993 21.6672 78.8557 21.5473 78.4264C21.3594 77.7546 21.0641 77.5792 19.7124 77.3365C19.0239 77.2128 19.0393 77.2381 19.2924 76.644L19.4806 76.2021H24.3376C28.2344 76.2021 29.3897 76.2561 30.1813 76.4757C33.6816 77.4459 35.648 80.2653 35.648 84.3139C35.648 87.1811 35.0164 88.982 33.4152 90.6812C32.3422 91.8197 31.0344 92.5838 29.3879 93.0342C28.296 93.3329 27.5866 93.3769 23.8629 93.3769C20.0937 93.3769 19.5907 93.3447 19.5907 93.105ZM28.3492 91.9775C29.6281 91.7565 30.5335 91.2165 31.4094 90.1521C33.0426 88.1676 33.462 84.0579 32.3147 81.283C31.8743 80.218 30.6344 78.8226 29.652 78.2865C28.2358 77.5137 25.1922 77.143 24.5282 77.6625C24.2265 77.8986 24.2133 78.1728 24.2133 84.2191C24.2133 89.9369 24.24 90.5731 24.4972 90.9927C24.9116 91.669 25.572 91.9566 27.1328 92.1403C27.222 92.1515 27.7694 92.0776 28.3492 91.9775ZM236.846 93.0613C235.826 92.5515 235.412 91.2949 236.264 91.2949C236.627 91.2949 236.755 91.3914 236.833 91.7224C236.908 92.0432 237.102 92.1985 237.61 92.3446C238.928 92.7244 240.204 92.2048 239.917 91.4048C239.818 91.129 239.597 91.0601 237.924 90.7841C236.712 90.5839 236.165 90.2503 236.017 89.6202C235.757 88.5116 236.571 87.6399 237.982 87.5147C239.516 87.3787 240.54 87.9873 240.695 89.1264C240.73 89.3847 240.638 89.4856 240.336 89.5215C240.033 89.5576 239.864 89.4433 239.667 89.0677C239.479 88.7106 239.231 88.5313 238.805 88.4459C237.692 88.2224 236.512 88.9772 237.17 89.4919C237.311 89.6025 237.99 89.7814 238.679 89.8894C239.378 89.999 240.11 90.2265 240.336 90.4045C241.188 91.0734 241.165 92.2233 240.288 92.9223C239.64 93.4379 237.752 93.5142 236.846 93.0613ZM146.439 89.8791C145.342 89.0755 145.035 87.6543 145.336 84.7828L145.464 83.5618L144.606 83.2365C142.893 82.587 141.241 81.1778 140.901 80.0765C140.684 79.3716 140.905 78.5227 141.506 77.7588C141.968 77.172 143.586 76.1554 144.711 75.7455L145.467 75.4696L145.338 74.2312C145.04 71.3851 145.352 69.898 146.408 69.1387C147.529 68.3324 149.272 68.8851 151.334 70.7007L152.107 71.3815L152.689 70.8859C154.625 69.2371 155.872 68.6325 157.001 68.7945C158.594 69.0231 159.249 70.9619 158.863 74.3055L158.732 75.4449L159.836 75.9128C161.465 76.6025 162.43 77.317 162.975 78.2353C163.53 79.1712 163.553 79.4039 163.187 80.3821C162.849 81.2858 161.485 82.3957 159.892 83.0641L158.756 83.5412L158.875 84.252C158.941 84.6429 158.994 85.6653 158.992 86.524C158.99 87.7609 158.92 88.2295 158.654 88.7793C158.239 89.6352 157.42 90.2539 156.702 90.2539C155.752 90.2539 153.858 89.2863 152.883 88.3028C152.162 87.5755 152.151 87.5757 151.349 88.3306C150.367 89.2558 148.729 90.1124 147.759 90.209C147.145 90.2702 146.882 90.203 146.439 89.8791ZM148.966 88.8609C149.746 88.5036 151.453 87.1978 151.453 86.9581C151.453 86.8689 151.142 86.4206 150.763 85.9618C150.384 85.5031 149.964 84.9491 149.831 84.7307C149.635 84.411 149.351 84.2981 148.371 84.1508C146.379 83.8513 146.365 83.8533 146.245 84.4424C146.066 85.318 146.107 87.7033 146.312 88.3411C146.65 89.3919 147.459 89.5505 148.966 88.8609ZM157.511 89.0811C158.043 88.7577 158.315 86.178 158.004 84.4024L157.897 83.7942L157.148 83.9132C156.736 83.9785 156.016 84.0917 155.548 84.1648C155.08 84.2379 154.675 84.3299 154.649 84.37C154.624 84.4097 154.188 85.0014 153.681 85.6846L152.76 86.9267L153.363 87.5091C154.886 88.9785 156.606 89.6305 157.511 89.0811ZM152.812 85.3959C153.135 85.0139 153.399 84.6236 153.399 84.5285C153.399 84.4278 152.856 84.3555 152.101 84.3555C151.388 84.3555 150.804 84.4008 150.804 84.4564C150.804 84.6241 151.969 86.0903 152.102 86.0903C152.17 86.0903 152.49 85.7778 152.812 85.3959ZM154.273 83.2219C154.41 83.0756 154.931 82.1834 155.431 81.2396L156.339 79.5235L156.07 78.9469C155.358 77.4201 154.274 75.6944 153.973 75.6076C153.544 75.4844 150.659 75.4841 150.231 75.6073C150.033 75.6643 149.57 76.3047 149.074 77.2096C147.708 79.6986 147.739 79.2875 148.772 81.2388C149.272 82.1841 149.841 83.0769 150.035 83.2227C150.545 83.6047 153.916 83.604 154.273 83.2219ZM151.108 81.2876C150.213 80.6941 149.909 79.4701 150.401 78.4513C150.712 77.8084 151.413 77.4161 152.25 77.4161C152.78 77.4161 153.009 77.5309 153.475 78.0291C153.95 78.5376 154.048 78.7667 154.047 79.3735C154.044 81.0827 152.406 82.1496 151.108 81.2876ZM148.695 83.1334C148.695 82.8072 147.495 80.7119 147.384 80.8439C147.238 81.0174 146.701 82.8014 146.773 82.8748C146.836 82.9393 148.173 83.2667 148.493 83.296C148.604 83.3071 148.695 83.2332 148.695 83.1334ZM156.845 83.047C157.326 82.9538 157.453 82.8512 157.45 82.558C157.447 82.1639 156.842 80.6129 156.738 80.7299C156.534 80.9585 155.507 82.9747 155.507 83.1458C155.507 83.272 155.649 83.3157 155.872 83.2584C156.073 83.207 156.511 83.1117 156.845 83.047ZM146.363 80.9839L146.922 79.4339L146.494 78.295C146.258 77.6685 146.002 76.9804 145.924 76.7657C145.746 76.2753 145.668 76.2781 144.523 76.8155C141.667 78.1567 141.038 79.4006 142.486 80.8432C142.907 81.2626 143.546 81.7421 143.906 81.9089C144.265 82.0757 144.742 82.2998 144.965 82.4068C145.188 82.5138 145.468 82.5861 145.587 82.5675C145.706 82.548 146.055 81.8364 146.363 80.9839ZM160.022 81.9996C161.159 81.4557 162.147 80.6041 162.406 79.9467C162.661 79.2975 162.44 78.744 161.636 78.0163C161.061 77.4963 158.806 76.3271 158.552 76.4175C158.467 76.4478 158.153 77.1479 157.855 77.9732L157.312 79.4737L157.899 81.049C158.557 82.8168 158.432 82.7607 160.022 81.9996ZM148.695 75.8458C148.695 75.7349 148.595 75.6854 148.473 75.7357C148.35 75.786 147.905 75.8825 147.483 75.9501C146.762 76.0657 146.722 76.1 146.803 76.5279C146.851 76.7781 147.008 77.283 147.153 77.6501L147.415 78.3175L148.055 77.1825C148.407 76.5582 148.695 75.9567 148.695 75.8458ZM157.135 77.4886C157.625 76.2645 157.576 76.0874 156.703 75.9474C156.29 75.8812 155.852 75.7858 155.73 75.7355C155.607 75.6852 155.507 75.7334 155.507 75.8425C155.507 76.0263 156.667 78.261 156.77 78.2765C156.795 78.2793 156.96 77.9259 157.135 77.4886ZM148.093 74.9172C148.876 74.7899 149.536 74.6562 149.559 74.6198C149.581 74.5834 150.022 73.9917 150.538 73.3048L151.476 72.0558L150.937 71.5386C150.64 71.2542 149.999 70.7624 149.512 70.4459C148.769 69.9627 148.47 69.8701 147.651 69.87C146.696 69.8698 146.668 69.8839 146.395 70.477C145.946 71.4522 146.072 75.1807 146.553 75.1548C146.616 75.152 147.309 75.0443 148.093 74.9172ZM157.96 74.5538C158.017 74.2675 158.072 73.3988 158.083 72.6233C158.105 71.0037 157.81 70.027 157.227 69.79C156.411 69.458 154.681 70.2125 153.383 71.4666L152.759 72.0694L153.681 73.3115C154.187 73.9947 154.623 74.5861 154.649 74.6257C154.715 74.7272 157.142 75.1233 157.534 75.0964C157.754 75.0825 157.89 74.9091 157.96 74.5538ZM153.399 74.4892C153.399 74.4061 153.107 73.9963 152.75 73.5785L152.1 72.8189L151.452 73.5995C151.096 74.0289 150.804 74.4388 150.804 74.5103C150.804 74.5818 151.388 74.6404 152.101 74.6404C152.815 74.6404 153.399 74.5724 153.399 74.4892ZM88.0354 81.0592C88.0354 76.4331 88.0921 73.9465 88.1976 73.9465C88.292 73.9465 88.3628 74.5443 88.3669 75.3777L88.3742 76.809L88.6794 76.1916C89.9028 73.7166 92.9271 73.009 94.8312 74.7523C95.1864 75.0775 95.6821 75.7904 95.9328 76.3365C96.3484 77.2421 96.3885 77.4972 96.3885 79.2376C96.3885 80.9444 96.3433 81.2467 95.9598 82.1001C95.1347 83.9362 94.051 84.6947 92.2526 84.6947C90.6278 84.6947 89.3809 83.8916 88.6285 82.3603C88.3871 81.8689 88.3724 82.0167 88.3663 85.0059C88.3621 86.9963 88.2996 88.1721 88.1976 88.1721C88.0921 88.1721 88.0354 85.6854 88.0354 81.0592ZM93.442 84.1686C93.825 84.0549 94.3371 83.679 94.7749 83.1902C95.8701 81.9677 96.3178 80.085 95.983 78.1103C95.6787 76.3153 95.0377 75.2828 93.8074 74.6063C93.3051 74.3302 92.9427 74.2712 92.0708 74.3239C90.542 74.4162 89.778 74.9909 89.0117 76.6245C88.4845 77.7484 88.4482 77.9324 88.465 79.4003C88.4842 81.0752 88.7095 81.8909 89.4385 82.9242C90.2683 84.1003 91.9315 84.6173 93.442 84.1686ZM244.205 87.8219C243.459 87.3558 243.827 85.9166 244.692 85.9166C245.584 85.9166 245.994 86.9764 245.363 87.6515C245.012 88.0269 244.624 88.0839 244.205 87.8219ZM245.401 87.4113C245.921 86.5658 244.829 85.6445 244.158 86.3628C243.814 86.7302 243.837 87.0606 244.236 87.4869C244.579 87.8536 245.151 87.8165 245.401 87.4113ZM244.408 86.9142C244.389 86.2563 244.709 86.0077 244.977 86.4717C245.141 86.7557 245.16 87.478 245.002 87.478C244.932 87.478 244.875 87.3609 244.875 87.2177C244.875 86.8574 244.591 86.8902 244.5 87.2611C244.459 87.4282 244.419 87.2723 244.408 86.9142ZM71.8855 84.3751C70.8982 83.8954 70.1126 82.8073 69.8036 81.4912C69.049 78.2781 70.0414 75.2646 72.2099 74.1847C73.9334 73.3262 75.9622 73.8718 77.0747 75.4929C77.6751 76.3678 78.1981 78.1101 78.1089 78.9381L78.058 79.411L69.9223 79.5033L70.0402 80.4322C70.4184 83.4131 72.3476 84.8715 74.9761 84.1633C76.1826 83.8383 77.0732 82.8102 77.5526 81.1888C77.7195 80.6241 78.01 80.8489 77.8889 81.449C77.6062 82.8499 76.8035 83.8536 75.4999 84.4363C74.6572 84.813 72.7196 84.7804 71.8855 84.3751ZM77.6525 78.4885C77.6525 76.8842 76.5679 75.0622 75.306 74.5467C74.1547 74.0764 72.7206 74.247 71.7851 74.9657C70.8875 75.6552 70.2151 76.8935 70.0811 78.1037L69.9843 78.9773H77.6526L77.6525 78.4885ZM105.841 84.5311C104.654 84.1485 103.761 82.9553 103.338 81.1892C102.672 78.4122 103.678 75.341 105.611 74.2466C106.124 73.9562 106.564 73.867 107.497 73.8639C108.538 73.8611 108.823 73.9293 109.478 74.3409C109.899 74.6053 110.435 75.0909 110.669 75.4198C111.179 76.1341 111.714 77.8755 111.714 78.8195V79.498H103.604V80.0736C103.604 81.8458 104.76 83.7019 106.137 84.142C107.435 84.5568 108.923 84.2944 109.9 83.4785C110.45 83.0184 111.063 81.9562 111.064 81.4598C111.065 81.0764 111.332 80.7667 111.504 80.9501C111.555 81.0046 111.506 81.3945 111.395 81.8165C110.933 83.5839 109.371 84.7129 107.424 84.6873C106.795 84.679 106.083 84.6089 105.841 84.5311ZM111.183 78.0456C111.033 76.4954 110.248 75.2446 109.005 74.5736C108.265 74.1746 106.672 74.2057 105.886 74.6346C104.687 75.2885 103.604 77.118 103.604 78.488V78.9775H111.272L111.183 78.0456ZM115.061 84.4485C113.903 84.0071 113.269 83.0764 113.142 81.6311C113.063 80.7411 113.376 80.9583 113.616 81.9597C113.899 83.1447 114.476 83.7767 115.591 84.1232C117.25 84.6391 119.254 84.0982 119.879 82.968C120.444 81.9453 120.071 80.6908 119.032 80.1161C118.791 79.9827 117.867 79.6668 116.978 79.4142C114.032 78.5764 113.471 78.0994 113.471 76.4347C113.471 75.5022 113.776 74.967 114.666 74.3369C115.27 73.9097 115.484 73.8603 116.73 73.8611C117.765 73.8618 118.279 73.9456 118.738 74.1891C119.568 74.6286 120.157 75.4884 120.197 76.3172C120.238 77.1715 119.936 77.2813 119.807 76.4586C119.681 75.6516 119.214 74.979 118.515 74.5977C117.818 74.2181 115.792 74.1818 115.152 74.5377C114.073 75.1383 113.63 76.2418 114.044 77.3003C114.314 77.9928 114.732 78.259 116.255 78.7082C119.437 79.6466 120.134 80.0488 120.471 81.1413C120.856 82.3898 120.207 83.7604 118.938 84.3767C118.138 84.7655 115.996 84.805 115.061 84.4485ZM124.518 84.5478C123.074 84.0454 122.26 82.8937 122.257 81.3485C122.256 80.6114 122.645 80.8718 122.753 81.6807C122.999 83.515 123.994 84.2708 126.149 84.2606C127.583 84.255 128.213 84.0381 128.79 83.3563C129.521 82.4918 129.408 80.9924 128.56 80.3195C128.325 80.1329 127.34 79.7498 126.371 79.4681C123.359 78.5925 122.809 78.1927 122.628 76.7458C122.513 75.8268 123.048 74.8164 123.938 74.2706C124.499 73.9265 124.832 73.8601 125.987 73.8613C127.468 73.8629 127.991 74.056 128.769 74.8881C129.252 75.4042 129.61 76.6485 129.395 77.0592C129.273 77.291 129.238 77.2802 129.151 76.9824C128.503 74.7813 127.943 74.301 126.022 74.2963C124.084 74.2908 123.238 74.8825 123.109 76.3301C123.05 76.9978 123.105 77.2498 123.397 77.646C123.82 78.2183 124.029 78.3132 126.366 78.9931C127.333 79.2744 128.339 79.6239 128.603 79.7698C129.694 80.3734 130.074 82.1763 129.352 83.3227C128.739 84.2955 128.068 84.5965 126.399 84.6472C125.593 84.6722 124.746 84.6281 124.518 84.5478ZM177.797 84.5255C176.806 84.3754 176.507 84.2129 175.83 83.4587C175.218 82.7772 174.78 81.2231 174.922 80.2384C175.096 79.0293 175.86 77.8318 176.787 77.3139C177.435 76.9519 178.959 77.0033 179.744 77.4135C180.732 77.9295 181.458 79.2707 181.458 80.5809V81.0592L179.065 81.0787C177.75 81.0898 176.509 81.0842 176.308 81.0675C175.88 81.0303 175.84 81.3287 176.164 82.1587C176.456 82.904 177.27 83.6207 177.991 83.7652C178.642 83.8959 179.766 83.599 180.206 83.1804C180.469 82.9296 180.517 82.9296 180.752 83.1809C181.09 83.5418 180.916 83.8075 180.099 84.1822C179.171 84.6075 178.746 84.6695 177.797 84.5255ZM180.485 80.0996C180.485 79.5873 180.033 78.6853 179.59 78.3127C179.25 78.0263 178.922 77.9366 178.214 77.9366C177.138 77.9366 176.531 78.3292 176.167 79.2613C175.731 80.3783 175.707 80.3654 178.214 80.3654C180.146 80.3654 180.485 80.3256 180.485 80.0996ZM184.459 84.4413C183.719 84.161 183.096 83.4313 183.052 82.794C182.946 81.2599 183.397 80.393 184.506 80.0016C185.226 79.7475 186.385 79.9179 186.971 80.3639C187.223 80.5555 187.472 80.7121 187.525 80.7121C187.578 80.7121 187.621 80.2897 187.621 79.7734C187.621 78.9382 187.566 78.7852 187.122 78.3856C186.433 77.7656 185.162 77.7528 184.329 78.3575C183.837 78.7144 183.72 78.7412 183.558 78.5332C183.269 78.1596 183.469 77.8445 184.253 77.4381C185.208 76.9436 186.837 76.9292 187.573 77.409C188.481 78.0011 188.595 78.4642 188.595 81.5711V84.3554H188.108C187.724 84.3554 187.621 84.2795 187.621 83.9967V83.6379L187.159 83.9899C186.905 84.1834 186.376 84.4212 185.983 84.518C185.115 84.7321 185.242 84.7382 184.459 84.4413ZM187.335 83.3643C187.533 83.1733 187.622 82.8301 187.622 82.2593C187.622 81.5802 187.548 81.3693 187.211 81.0862C186.363 80.3723 184.861 80.4872 184.219 81.3151C183.873 81.7605 183.941 82.9251 184.338 83.3489C184.965 84.0204 186.649 84.0278 187.335 83.3643ZM193.217 84.5383C191.385 84.0145 190.541 82.789 190.541 80.6507C190.541 79.6804 190.609 79.4301 191.068 78.7059C191.854 77.4664 192.309 77.178 193.601 77.0999C194.494 77.0459 194.836 77.1054 195.388 77.4059C196.196 77.8468 196.392 78.2385 195.97 78.5688C195.804 78.6981 195.628 78.7409 195.579 78.6636C195.107 77.9352 193.728 77.7227 192.741 78.2263C191.657 78.7789 191.17 80.8839 191.806 82.2672C192.201 83.1272 193.016 83.6612 193.935 83.6612C194.618 83.6612 195.31 83.3507 195.586 82.9212C195.714 82.7207 196.25 83.2958 196.172 83.5512C196.082 83.8507 194.91 84.49 194.271 84.5891C193.959 84.6375 193.485 84.6145 193.217 84.5383ZM198.927 84.4254C198.678 84.2809 198.404 83.9666 198.319 83.7272C198.234 83.4878 198.164 82.126 198.164 80.7009V78.11H197.597C197.102 78.11 197.029 78.0552 197.029 77.6841C197.029 77.3348 197.131 77.2378 197.597 77.1444C198.162 77.0309 198.164 77.0268 198.164 76.0956C198.164 75.1761 198.173 75.1608 198.643 75.1608C199.111 75.1608 199.122 75.183 199.17 76.1528C199.217 77.121 199.23 77.1454 199.705 77.1711C200.593 77.2192 200.621 77.2342 200.568 77.6329C200.525 77.9574 200.4 78.0322 199.827 78.0766L199.137 78.13V80.4507C199.137 81.7271 199.212 82.9818 199.303 83.2387C199.454 83.6612 199.53 83.6973 200.1 83.6156C200.625 83.5402 200.744 83.5805 200.812 83.8569C200.87 84.0946 200.761 84.2617 200.429 84.4455C199.85 84.7654 199.506 84.7602 198.927 84.4254ZM79.0554 83.8966C79.3212 83.5287 80.1728 82.3559 80.9478 81.2904C81.7228 80.2249 82.3569 79.2618 82.3569 79.1502C82.3569 79.0387 81.627 77.9108 80.735 76.6439C79.2137 74.4833 78.9181 73.9465 79.2499 73.9465C79.3252 73.9465 80.1401 75.0366 81.0607 76.3689L82.7346 78.7913L83.4559 77.8001C83.8527 77.255 84.6156 76.1649 85.1512 75.3777C86.0602 74.042 86.4118 73.6929 86.4118 74.1261C86.4118 74.2248 85.6411 75.3991 84.6993 76.7356L82.9868 79.1654L83.6142 79.9822C85.6282 82.6041 86.9052 84.5283 86.6252 84.5197C86.4413 84.5141 85.6638 83.57 84.5539 82.005C83.3448 80.2998 82.7243 79.556 82.6115 79.6766C82.5204 79.7739 81.7108 80.8857 80.8124 82.1471C79.9139 83.4084 79.0423 84.4685 78.8755 84.5029C78.6227 84.5549 78.6527 84.4538 79.0554 83.8966ZM98.4522 79.3244C98.4798 76.0023 98.5538 74.1194 98.6573 74.1183C98.7465 74.1174 98.8414 74.637 98.8681 75.2728L98.9166 76.4287L99.2422 75.7248C99.749 74.6292 101.116 73.773 102.36 73.773C103.159 73.773 102.748 74.1984 101.832 74.3199C100.771 74.4606 99.9563 75.1212 99.3879 76.3015C98.9979 77.1112 98.9796 77.2924 98.9296 80.837C98.8862 83.9131 98.8384 84.5289 98.6434 84.5289C98.4436 84.5289 98.4156 83.7657 98.4522 79.3244ZM167.305 84.3951C167.043 84.3351 167.021 83.9501 167.021 79.2991V74.2681L169.333 74.3243C171.289 74.3718 171.742 74.4355 172.283 74.7393C173.462 75.4008 174.01 76.7634 173.659 78.1593C173.43 79.0698 172.417 80.1922 171.825 80.1922C171.592 80.1922 171.401 80.2656 171.401 80.3554C171.401 80.4453 171.911 81.3626 172.535 82.3939L173.67 84.2689L173.146 84.3262C172.523 84.3943 172.376 84.2278 171.038 81.9499L170.107 80.3655H168.157V82.3403C168.157 84.4382 168.099 84.5772 167.305 84.3951ZM172.032 78.8211C172.524 78.3293 172.603 78.0425 172.538 76.9824C172.469 75.8487 171.533 75.3344 169.54 75.3344H168.157V79.3244H169.842C171.479 79.3244 171.543 79.3105 172.032 78.8211ZM243.974 84.0276C243.889 83.9428 242.762 83.2278 241.468 82.4389C240.175 81.65 238.989 80.8876 238.833 80.7448C238.579 80.5129 238.549 80.0983 238.549 76.8713V73.2575L239.157 72.8391C239.491 72.6089 240.821 71.7768 242.111 70.9898L244.457 69.559L245.276 70.0179C245.727 70.2704 246.186 70.4769 246.296 70.4769C246.45 70.4769 246.496 69.4304 246.496 65.9767C246.496 63.0836 246.556 61.437 246.663 61.3661C246.824 61.2593 249.204 62.5436 250.105 63.2243L250.551 63.5612V71.9302C250.551 78.3644 250.504 80.3619 250.348 80.5713C250.053 80.9672 244.782 84.182 244.428 84.182C244.263 84.182 244.059 84.1124 243.974 84.0276ZM246.415 76.9096V75.6534L244.469 74.4866L242.604 75.7093V78.2006L243.536 78.7538L244.469 79.307L246.415 78.1657V76.9096ZM228.979 83.5908C228.667 83.3722 228.083 83.0035 227.682 82.7713C225.716 81.6345 224.255 80.6474 224.111 80.3599C223.866 79.8706 223.904 73.5592 224.154 73.206C224.38 72.8871 229.669 69.6095 229.958 69.6095C230.22 69.6095 235.305 72.7322 235.659 73.1104C235.924 73.3945 235.954 73.7709 235.954 76.8687C235.954 79.93 235.923 80.341 235.67 80.5787C235.116 81.1003 230.181 84.0082 229.867 83.9982C229.691 83.9926 229.292 83.8092 228.979 83.5908ZM255.985 82.2863L253.227 80.5752L253.184 76.843L253.14 73.1108L255.959 71.3601C257.51 70.3973 258.918 69.6095 259.088 69.6095C259.257 69.6095 260.636 70.3816 262.151 71.3251L264.905 73.0408L265 75.4812L264.304 75.9841C263.008 76.9201 261.399 77.7926 261.154 77.6921C261.02 77.637 260.924 77.4549 260.94 77.2873C260.956 77.1196 260.959 76.669 260.951 76.2858C260.934 75.6305 260.877 75.5539 260.012 75.0006L259.093 74.4122L258.352 74.83C257.183 75.4893 257.039 75.7135 257.039 76.884C257.039 78.0971 256.81 77.8778 260.324 80.0192C261.794 80.9152 262.715 81.5804 262.714 81.7453C262.712 82.0395 259.484 84.0124 259.019 84.0031C258.867 84.0003 257.501 83.2274 255.985 82.2863ZM209.481 78.1534C209.456 75.6965 209.459 73.5222 209.49 73.3215C209.529 73.0565 210.239 72.5268 212.085 71.3839C213.482 70.5189 214.823 69.7154 215.065 69.5985C215.478 69.3991 215.685 69.4981 218.39 71.1897L221.275 72.9934L221.318 77.807C221.356 82.0497 221.332 82.6205 221.111 82.6205C220.617 82.6205 217.464 80.514 217.38 80.1285C217.336 79.9247 217.282 78.7872 217.26 77.6006L217.22 75.4432L216.49 74.9687C215.534 74.3468 215.223 74.3555 214.278 75.0307L213.49 75.5945L213.444 77.925C213.419 79.2068 213.323 80.353 213.23 80.4721C213.011 80.7544 209.956 82.6205 209.713 82.6205C209.578 82.6205 209.514 81.3811 209.481 78.1534ZM258.432 77.8006C258.067 77.5643 257.947 77.3444 257.909 76.8505C257.865 76.2798 257.925 76.1599 258.452 75.7775L259.044 75.3469L259.664 75.7196C260.214 76.0501 260.284 76.1672 260.284 76.7567C260.284 77.3203 260.204 77.4735 259.757 77.765C259.112 78.1852 259.027 78.1875 258.432 77.8006ZM41.2154 73.4375C40.3171 72.8516 40.297 71.8284 41.1708 71.1629C41.661 70.7896 41.663 70.7819 41.3326 70.5344C40.903 70.2126 40.9079 69.8703 41.3468 69.5416L41.6953 69.2805L41.1846 68.6583C40.4748 67.7936 40.4839 67.0025 41.2126 66.223C41.8817 65.5074 42.6826 65.3234 43.8381 65.6199C44.3093 65.7408 44.885 65.7886 45.1173 65.7264C45.3496 65.6641 45.5397 65.686 45.5397 65.7756C45.5397 66.207 45.3054 66.487 44.9445 66.487C44.6623 66.487 44.5546 66.5754 44.5751 66.7906C44.6877 67.9751 44.2083 68.7409 43.1331 69.094C42.0193 69.4598 42.0639 69.431 42.2707 69.6522C42.376 69.7648 42.9856 69.9083 43.6255 69.9709C44.9458 70.1005 45.378 70.4548 45.3769 71.4071C45.3749 73.1813 42.7708 74.4519 41.2154 73.4375ZM44.0479 72.7756C44.4954 72.3617 44.6133 71.826 44.3436 71.4316C44.1744 71.1841 43.86 71.0856 43.0668 71.0316C42.1094 70.9665 41.9904 70.9966 41.7496 71.3643C41.3754 71.9357 41.4197 72.3053 41.9122 72.7197C42.4545 73.1759 43.5831 73.2056 44.0479 72.7756ZM43.4255 68.2332C44.0649 66.9552 43.0353 65.4366 42.0513 66.2062C41.6507 66.5195 41.6562 67.7534 42.0602 68.2309C42.4338 68.6725 43.205 68.6738 43.4255 68.2332ZM29.8123 70.5201C29.0446 70.1059 28.6082 69.2417 28.5983 68.116C28.5855 66.6491 29.4945 65.634 30.9557 65.4838C32.0194 65.3746 32.7071 65.7349 33.1906 66.6552C33.9065 68.0177 33.4415 69.8126 32.2069 70.4519C31.3359 70.9028 30.5625 70.9249 29.8123 70.5201ZM31.8504 69.9973C32.4148 69.5942 32.5762 68.1366 32.1713 67.1C31.9133 66.4396 31.0959 65.8909 30.6138 66.0545C29.0063 66.6003 29.5694 70.1385 31.262 70.1274C31.4875 70.126 31.7523 70.0673 31.8504 69.9973ZM34.3482 70.4639C34.3482 70.3027 34.4831 70.1328 34.648 70.0867C35.0009 69.988 35.1592 69.3005 35.1592 67.8655C35.1592 66.8293 34.9082 66.3135 34.4042 66.3135C33.8731 66.3135 34.3332 65.8842 35.089 65.6746C36.1281 65.3864 36.1323 65.3869 36.1323 65.7906C36.1323 66.134 36.1338 66.1339 36.6594 65.7912C36.9493 65.6021 37.444 65.4472 37.7587 65.4468C38.9573 65.4454 39.3737 66.2619 39.3753 68.6165C39.3761 69.9065 39.3944 69.9728 39.7948 70.1356C40.5643 70.4485 40.149 70.7086 38.8398 70.7336C37.7673 70.7531 37.592 70.717 37.592 70.4642C37.592 70.303 37.738 70.13 37.9164 70.08C38.2091 69.9983 38.2408 69.8434 38.2408 68.4985C38.2408 67.2389 38.1905 66.9538 37.9164 66.6607C37.5165 66.2329 36.9303 66.2153 36.4674 66.6173C36.1488 66.894 36.122 67.0595 36.1656 68.4822C36.2109 69.9635 36.2326 70.0465 36.5878 70.1003C36.828 70.1368 36.9443 70.256 36.9122 70.4333C36.8721 70.6552 36.6142 70.7143 35.6052 70.7336C34.5239 70.7531 34.3482 70.7167 34.3482 70.4639ZM47.1414 70.45C46.4201 70.0026 46.026 69.1662 46.0268 68.0844C46.0276 67.0396 46.4656 66.2599 47.3109 65.7987C49.1222 64.8103 50.9448 65.9427 50.9517 68.0605C50.9553 69.1351 50.4913 69.9474 49.5969 70.4323C48.7019 70.9175 47.9044 70.9244 47.1414 70.45ZM49.4904 69.7383C50.3272 68.3042 49.5923 66.0809 48.2815 66.0809C47.549 66.0809 47.1616 66.6437 47.1616 67.708C47.1616 69.2335 47.7301 70.1288 48.6987 70.1288C49.1079 70.1288 49.3251 70.0217 49.4904 69.7383ZM19.1026 70.4091C19.1026 70.277 19.2378 70.1314 19.403 70.0851C19.6443 70.0176 19.7193 69.7831 19.7837 68.8939C19.9072 67.1877 19.7914 66.5608 19.3094 66.3259C18.7987 66.077 18.9112 65.9489 19.8809 65.6752C20.8882 65.3909 20.8867 65.3908 20.8867 65.792V66.1393L21.4926 65.792C22.2643 65.3497 22.841 65.3517 23.3723 65.7976L23.7932 66.1516L24.442 65.7976C26.1954 64.8409 27.0501 65.7195 27.0501 68.4782C27.0501 69.902 27.0668 69.9694 27.4556 70.1276C28.233 70.4437 27.8828 70.648 26.5635 70.648C25.2162 70.648 25.0116 70.5243 25.6309 70.0839C25.9628 69.8478 25.9945 69.6943 25.9811 68.3866C25.968 67.1113 25.9247 66.9127 25.5982 66.6298C25.1842 66.2712 24.7462 66.2249 24.2821 66.4905C24.0056 66.6488 23.9684 66.8664 23.9684 68.3283C23.9684 69.8406 23.997 69.9945 24.2928 70.0773C24.4712 70.1273 24.6172 70.2761 24.6172 70.408C24.6172 70.591 24.3283 70.6479 23.4007 70.6479C22.2365 70.6479 21.8153 70.4358 22.4681 70.1781C22.6242 70.1163 22.8056 69.9823 22.8711 69.8799C23.0618 69.5821 23.0134 67.4108 22.8053 66.9221C22.5843 66.4033 21.994 66.1936 21.3911 66.4199C20.9784 66.5747 20.9667 66.6214 20.9212 68.2809C20.8778 69.8691 20.8968 69.9893 21.2051 70.0755C21.3868 70.1264 21.5355 70.276 21.5355 70.4079C21.5355 70.5909 21.2466 70.6479 20.319 70.6479C19.3914 70.6479 19.1026 70.5921 19.1026 70.4091ZM0.77453 23.636V0.0425964L5.27556 0.043657C7.87756 0.0441575 10.0316 0.120386 10.3811 0.224098C10.7136 0.322804 11.1763 0.615192 11.4094 0.873692C11.6425 1.13228 12.8163 3.41247 14.0179 5.94083C22.5515 23.8977 24.1147 27.2276 24.7939 28.8953C25.2142 29.9273 25.5962 30.7057 25.6429 30.625C25.6895 30.5443 25.9579 29.856 26.2394 29.0955C26.5208 28.335 27.6117 25.9172 28.6637 23.7228C29.7156 21.5283 32.055 16.6101 33.8623 12.7933C39.9741 -0.113067 39.5934 0.573988 40.826 0.218922C41.2157 0.10659 43.1617 0.0543052 45.8921 0.0829441L50.3252 0.129104V47.1414L41.3185 47.2337L41.3615 31.7186C41.3852 23.1854 41.3895 16.22 41.371 16.2397C41.3344 16.2789 36.0247 27.2532 33.2604 33.0026C32.32 34.9586 31.0835 37.5109 30.5126 38.6745C28.9739 41.8109 28.2241 42.3706 25.5601 42.3706C22.7432 42.3706 22.0975 41.7782 19.889 37.1661C16.9033 30.9312 9.84428 16.2817 9.80173 16.2325C9.78783 16.2158 9.7984 23.184 9.82537 31.7158L9.87397 47.2281H0.774869L0.77453 23.636ZM86.7384 23.636V0.0425964H115.121V8.54303H97.1179V19.4725H110.904V27.6263H97.1179V38.729H115.121V47.2294H86.7384V23.636ZM149.549 47.1085C149.389 47.044 149.347 42.1698 149.347 23.5348V0.0425964L156.118 0.0443359C163.26 0.0460876 167.555 0.238127 169.541 0.644715C171.155 0.974869 174.039 2.02043 175.135 2.67275C176.447 3.45287 177.874 4.65974 178.715 5.70125C181.183 8.75727 181.954 14.2559 180.549 18.7786C179.501 22.1519 177.01 25.1217 173.852 26.7639C173.22 27.0925 172.703 27.4146 172.703 27.4796C172.703 27.5447 172.944 27.7571 173.238 27.952C174.055 28.4921 175.658 30.3656 176.3 31.5296C176.615 32.1021 177.709 34.0147 178.731 35.7798C179.753 37.545 180.848 39.4576 181.166 40.0301C181.483 40.6025 182.519 42.4227 183.467 44.0748C184.416 45.727 185.192 47.1192 185.192 47.1689C185.192 47.2184 182.874 47.2326 180.042 47.1998C175.203 47.1442 174.848 47.1183 174.162 46.7739C172.906 46.1429 173.159 46.5613 166.695 34.4128C164.926 31.0885 164.111 29.9952 163.269 29.815C162.993 29.756 162.012 29.7079 161.087 29.7079H159.406L159.322 47.1429L154.537 47.1652C151.905 47.1791 149.661 47.1524 149.549 47.1085ZM166.011 21.9738C167.442 21.6576 168.109 21.3275 169.227 20.3824C171.707 18.2848 172.081 13.0369 169.93 10.5401C168.472 8.84844 166.763 8.3354 162.484 8.30451L159.484 8.28228L159.441 15.2649L159.399 22.2475H162.084C163.901 22.2475 165.171 22.1596 166.011 21.9738ZM216.982 23.6148V0L220.429 0.0720405C223.482 0.135713 223.938 0.182691 224.423 0.483621C224.939 0.803988 226.354 2.63695 232.464 10.9015C233.797 12.7054 235.554 15.0792 236.368 16.1763C238.416 18.9381 241.182 22.6776 243.671 26.0503C244.826 27.6168 245.918 29.0852 246.096 29.3135L246.421 29.7287L246.317 0.0360202L255.341 0.128341V47.1406L252.589 47.1884C249.442 47.2429 248.424 47.0755 247.486 46.3489C247.123 46.0672 245.975 44.6858 244.935 43.2793C242.85 40.4585 242.113 39.4633 239.829 36.3848C238.98 35.2398 235.776 30.907 232.71 26.7566C229.643 22.6059 226.839 18.8197 226.478 18.3429L225.822 17.4755L225.868 32.3516L225.915 47.2276H216.982L216.982 23.6148Z" fill="#DADADA"/>
</svg>
