<svg width="122" height="64" viewBox="0 0 122 64" fill="none" xmlns="http://www.w3.org/2000/svg">
<path d="M60.8437 3.1943C93.4331 3.1943 118.493 16.9222 118.493 32C118.493 47.0778 93.4141 60.8057 60.8437 60.8057C28.2543 60.8057 3.19427 47.0778 3.19427 32C3.19427 16.9222 28.2733 3.1943 60.8437 3.1943ZM60.8437 0C27.2466 0 -3.05176e-05 14.3173 -3.05176e-05 32C-3.05176e-05 49.6827 27.2466 64 60.8437 64C94.4409 64 121.687 49.6827 121.687 32C121.687 14.3173 94.4409 0 60.8437 0ZM41.4878 29.4332C39.9857 37.1337 34.6809 36.3351 28.1592 36.3351L30.7641 22.9115C37.9893 22.9115 42.8948 22.1319 41.4878 29.4332ZM18.5193 49.9299H25.4973L27.1515 41.4118C34.9661 41.4118 39.8146 41.9822 44.3018 37.7802C49.2644 33.2169 50.5573 25.098 47.0208 21.0291C45.1764 18.8996 42.2103 17.8538 38.1794 17.8538H24.7368L18.5193 49.9299ZM53.8277 9.3167H60.7677L59.1135 17.8348C65.1028 17.8348 70.6548 17.3975 73.3357 19.8693C76.1497 22.4551 74.7997 25.7635 71.7575 41.3737H64.7225C67.6506 26.2769 68.202 25.022 67.1372 23.8812C66.1105 22.7784 63.7718 23.0065 58.1248 23.0065L54.5502 41.3737H47.6102L53.8277 9.3167ZM96.019 29.4332C94.4979 37.2478 89.041 36.3351 82.6904 36.3351L85.2953 22.9115C92.5585 22.9115 97.426 22.1319 96.019 29.4332ZM73.0505 49.9299H80.0475L81.7017 41.4118C89.9156 41.4118 94.4599 41.8871 98.852 37.7802C103.815 33.2169 105.108 25.098 101.571 21.0291C99.7267 18.8996 96.7605 17.8538 92.7296 17.8538H79.287L73.0505 49.9299Z" fill="#DADADA"/>
</svg>
