<svg width="169" height="148" viewBox="0 0 169 148" fill="none" xmlns="http://www.w3.org/2000/svg">
<path d="M138.039 47.9612C136.256 47.3665 134.474 46.805 132.691 46.2764C132.988 45.0542 133.253 43.8319 133.517 42.6097C137.577 22.9214 134.903 7.09817 125.892 1.8788C117.211 -3.10932 103.05 2.07701 88.725 14.5638C87.3057 15.7861 85.9193 17.0744 84.599 18.3627C83.7078 17.5039 82.7836 16.645 81.8594 15.8191C66.8408 2.47342 51.7893 -3.14236 42.7781 2.11004C34.1301 7.1312 31.5555 22.0295 35.1863 40.6607C35.5494 42.5106 35.9455 44.3274 36.4076 46.1773C34.2951 46.7719 32.2156 47.4326 30.2682 48.1263C12.642 54.2376 0 63.8835 0 73.8598C0 84.1664 13.4672 94.506 31.7865 100.782C33.2719 101.278 34.7572 101.773 36.2756 102.203C35.7805 104.185 35.3514 106.134 34.9553 108.149C31.4895 126.483 34.1961 141.018 42.8441 146.006C51.7563 151.159 66.7418 145.874 81.3312 133.09C82.4865 132.066 83.6418 131.009 84.7971 129.885C86.2494 131.306 87.7678 132.66 89.2861 133.982C103.413 146.138 117.376 151.06 125.991 146.072C134.903 140.919 137.808 125.294 134.045 106.266C133.748 104.813 133.418 103.326 133.054 101.807C134.111 101.509 135.134 101.179 136.157 100.849C155.203 94.539 169 84.3315 169 73.8598C169 63.8505 155.995 54.1385 138.039 47.9612ZM93.3791 19.9153C105.658 9.21234 117.112 5.01703 122.327 8.02312C127.905 11.2274 130.051 24.1767 126.552 41.1892C126.321 42.3124 126.09 43.4025 125.793 44.4926C118.465 42.8409 111.038 41.6517 103.579 40.991C99.2875 34.8467 94.6004 28.9666 89.5172 23.45C90.8045 22.2277 92.0588 21.0715 93.3791 19.9153ZM55.1891 91.0044C56.8725 93.8784 58.5889 96.7523 60.4043 99.5602C55.2551 98.9986 50.1389 98.1728 45.0887 97.0826C46.541 92.3258 48.3564 87.4037 50.4689 82.3825C51.9873 85.2895 53.5387 88.1635 55.1891 91.0044ZM45.1877 51.2646C49.9408 50.2075 54.991 49.3486 60.2393 48.6879C58.4898 51.4297 56.7734 54.2376 55.1561 57.0785C53.5387 59.8864 51.9543 62.7604 50.4689 65.6674C48.3895 60.7453 46.64 55.9223 45.1877 51.2646ZM54.2318 74.0249C56.4104 69.4663 58.7869 65.0067 61.2955 60.6132C63.8041 56.2196 66.5107 51.9583 69.3494 47.763C74.3006 47.3996 79.3508 47.2014 84.5 47.2014C89.6492 47.2014 94.7324 47.3996 99.6506 47.763C102.456 51.9252 105.13 56.1866 107.671 60.5471C110.213 64.9076 112.59 69.3672 114.834 73.8928C112.623 78.4515 110.246 82.9441 107.704 87.3707C105.196 91.7642 102.522 96.0256 99.7166 100.254C94.7984 100.617 89.6822 100.782 84.5 100.782C79.3178 100.782 74.3006 100.617 69.4484 100.32C66.5768 96.1247 63.8701 91.8302 61.3285 87.4367C58.7869 83.0432 56.4434 78.5836 54.2318 74.0249ZM113.844 90.9383C115.527 88.0313 117.112 85.0913 118.663 82.1183C120.776 86.9082 122.624 91.7642 124.241 96.7523C119.125 97.9085 113.943 98.8004 108.728 99.395C110.51 96.6202 112.194 93.7792 113.844 90.9383ZM118.597 65.6674C117.046 62.7604 115.461 59.8534 113.811 57.0125C112.194 54.2046 110.51 51.4297 108.761 48.6879C114.075 49.3486 119.158 50.2405 123.911 51.3306C122.393 56.2196 120.611 60.9765 118.597 65.6674ZM84.566 28.5042C88.0318 32.27 91.2996 36.2341 94.3363 40.3303C87.8008 40.033 81.2322 40.033 74.6967 40.3303C77.9314 36.0689 81.2652 32.1049 84.566 28.5042ZM46.277 8.25436C51.8223 5.01703 64.1342 9.64178 77.1063 21.1376C77.9314 21.8643 78.7566 22.6572 79.6148 23.45C74.4986 28.9666 69.7785 34.8467 65.4545 40.991C57.9947 41.6517 50.601 42.8079 43.2732 44.4265C42.8441 42.7418 42.4811 41.024 42.118 39.3063C39.0152 23.3178 41.0617 11.2604 46.277 8.25436ZM38.19 95.3318C36.8037 94.9354 35.4504 94.506 34.0971 94.0435C27.0664 91.8302 19.0785 88.3286 13.3021 83.7369C9.96836 81.4246 7.72383 77.8569 7.09668 73.8598C7.09668 67.8146 17.5271 60.0846 32.5787 54.8322C34.4602 54.1715 36.3746 53.5769 38.2891 53.0154C40.5336 60.1837 43.2402 67.22 46.376 74.0249C43.2072 80.929 40.4676 88.0644 38.19 95.3318ZM76.6771 127.705C71.2309 132.693 64.9264 136.657 58.0607 139.366C54.3969 141.117 50.1719 141.282 46.409 139.796C41.1607 136.756 38.9822 125.095 41.9529 109.404C42.316 107.554 42.7121 105.705 43.1742 103.888C50.568 105.473 58.0277 106.563 65.5865 107.125C69.9436 113.302 74.7297 119.215 79.8459 124.765C78.7896 125.789 77.7334 126.78 76.6771 127.705ZM84.7641 119.678C81.3973 116.044 78.0305 112.014 74.7627 107.687C77.9314 107.819 81.1992 107.885 84.5 107.885C87.8998 107.885 91.2336 107.819 94.5344 107.654C91.4977 111.849 88.2299 115.846 84.7641 119.678ZM127.905 129.588C127.608 133.618 125.628 137.384 122.459 139.928C117.211 142.967 106.021 139.003 93.9402 128.63C92.5539 127.441 91.1676 126.153 89.7482 124.831C94.7984 119.248 99.4525 113.335 103.678 107.125C111.236 106.497 118.762 105.341 126.189 103.656C126.519 105.011 126.816 106.365 127.08 107.687C128.697 114.822 128.962 122.255 127.905 129.588ZM133.913 94.0765C132.988 94.3739 132.064 94.6712 131.107 94.9354C128.796 87.734 125.958 80.6978 122.69 73.8598C125.859 67.1209 128.532 60.1837 130.777 53.0814C132.493 53.5769 134.144 54.1055 135.728 54.634C151.11 59.9194 161.903 67.7815 161.903 73.7937C161.903 80.2684 150.384 88.6259 133.913 94.0765ZM84.5 89.1215C92.851 89.1215 99.6176 82.3495 99.6176 73.9919C99.6176 65.6343 92.851 58.8624 84.5 58.8624C76.149 58.8624 69.3824 65.6343 69.3824 73.9919C69.3824 82.3495 76.149 89.1215 84.5 89.1215Z" fill="#DADADA"/>
</svg>
