<svg width="60" height="64" viewBox="0 0 60 64" fill="none" xmlns="http://www.w3.org/2000/svg">
<path d="M59.2962 22.3298H50.6288V13.8372L35.8694 0H0.851074V64H50.6288V54.8146H59.2962V22.3298ZM53.9629 49.4812H16.6296V27.6631H53.9629V49.4812Z" fill="#DADADA"/>
<path d="M24.5329 41.7943C24.0856 41.7943 23.6497 41.7399 23.2244 41.6307C22.7992 41.5218 22.412 41.3882 22.0632 41.23C21.7142 41.0722 21.4116 40.9139 21.1555 40.7557C20.8991 40.5978 20.722 40.4695 20.6239 40.3714L19.6262 42.3177C20.3021 42.7977 21.0655 43.1682 21.916 43.4298C22.7665 43.6915 23.6276 43.8224 24.5002 43.8224C25.0671 43.8224 25.6095 43.7594 26.1276 43.6343C26.6452 43.509 27.1032 43.31 27.5014 43.0373C27.8993 42.765 28.2156 42.4076 28.45 41.966C28.6844 41.5244 28.8017 40.9929 28.8017 40.3714C28.8017 39.8373 28.7142 39.3874 28.54 39.022C28.3654 38.6569 28.1172 38.3433 27.7958 38.0816C27.474 37.8199 27.0815 37.6019 26.6182 37.4274C26.1548 37.2531 25.6394 37.0896 25.0726 36.9367C24.6364 36.8279 24.252 36.7241 23.9196 36.6259C23.5868 36.5278 23.3117 36.419 23.0936 36.2988C22.8753 36.179 22.7092 36.04 22.5948 35.8818C22.4803 35.7239 22.423 35.5248 22.423 35.2848C22.423 34.8706 22.5756 34.5488 22.881 34.3198C23.186 34.0908 23.6497 33.9763 24.2712 33.9763C24.62 33.9763 24.9636 34.0201 25.3016 34.1072C25.6394 34.1946 25.953 34.301 26.242 34.4261C26.5309 34.5516 26.7761 34.6796 26.978 34.8105C27.1796 34.9413 27.3187 35.0451 27.3951 35.1212L28.3928 33.2894C27.8801 32.9406 27.2806 32.638 26.5937 32.3817C25.9068 32.1257 25.1544 31.9973 24.3366 31.9973C23.7478 31.9973 23.1971 32.0764 22.6847 32.2345C22.172 32.3927 21.7222 32.6243 21.3354 32.9296C20.9482 33.235 20.6456 33.6165 20.4276 34.0745C20.2093 34.5324 20.1005 35.0558 20.1005 35.6446C20.1005 36.0919 20.1684 36.4762 20.305 36.7977C20.4413 37.1194 20.6458 37.4028 20.9183 37.6482C21.1907 37.8935 21.5316 38.1061 21.9405 38.286C22.3494 38.4659 22.8319 38.6323 23.388 38.7849C23.846 38.9157 24.2602 39.0359 24.631 39.1447C25.0015 39.2538 25.318 39.3737 25.5796 39.5045C25.8413 39.6354 26.0429 39.7881 26.1848 39.9625C26.3263 40.137 26.3974 40.3497 26.3974 40.6003C26.3972 41.3964 25.7759 41.7943 24.5329 41.7943Z" fill="#DADADA"/>
<path d="M31.361 41.9412C31.857 42.4867 32.4513 42.9283 33.1437 43.266C33.836 43.6042 34.6074 43.7731 35.458 43.7731C36.0141 43.7731 36.5375 43.6995 37.0282 43.5523C37.5188 43.4051 37.9768 43.2006 38.4022 42.9389L39.0726 43.6913H41.1988L39.6123 41.9085C40.092 41.3745 40.4655 40.7636 40.7327 40.0767C40.9997 39.3898 41.1334 38.6701 41.1334 37.9178C41.1334 37.1875 40.9969 36.4678 40.7245 35.7588C40.452 35.0502 40.0703 34.4177 39.5798 33.8616C39.089 33.3055 38.4975 32.8557 37.8052 32.5123C37.1126 32.1688 36.3467 31.9971 35.5073 31.9971C34.6893 31.9971 33.9315 32.158 33.2339 32.4796C32.5359 32.8013 31.9336 33.2348 31.4266 33.7798C30.9194 34.3251 30.5213 34.9521 30.2326 35.6607C29.9435 36.3695 29.7992 37.111 29.7992 37.8851C29.7992 38.6268 29.9355 39.3517 30.2081 40.0604C30.4804 40.7693 30.8646 41.3964 31.361 41.9412ZM32.3096 36.4703C32.4568 36.007 32.6719 35.59 32.9556 35.2191C33.2392 34.8484 33.5935 34.5514 34.0187 34.3277C34.444 34.1044 34.929 33.9924 35.4744 33.9924C35.9978 33.9924 36.4694 34.1016 36.8891 34.3196C37.3087 34.5379 37.6632 34.8266 37.9523 35.1864C38.241 35.5462 38.4646 35.9606 38.6227 36.4294C38.7807 36.8984 38.8598 37.3837 38.8598 37.8851C38.8598 38.3103 38.7999 38.7302 38.6799 39.1444C38.5597 39.559 38.3908 39.9405 38.1729 40.2893L37.3715 39.3898H35.2451L37.0116 41.3852C36.7933 41.5053 36.5562 41.6006 36.3002 41.6714C36.0438 41.7423 35.7686 41.7777 35.4742 41.7777C34.9398 41.7777 34.4628 41.6689 34.0431 41.4506C33.6234 41.2326 33.2689 40.9436 32.98 40.5837C32.6909 40.2239 32.4701 39.8097 32.3174 39.3407C32.1647 38.8721 32.0884 38.3868 32.0884 37.8851C32.0888 37.4054 32.1624 36.934 32.3096 36.4703Z" fill="#DADADA"/>
<path d="M51.0284 41.7125H45.1078V32.0791H42.8506V43.6915H51.0284V41.7125Z" fill="#DADADA"/>
</svg>
