<svg width="230" height="183" viewBox="0 0 230 183" fill="none" xmlns="http://www.w3.org/2000/svg">
<path d="M83.6096 130.751C79.2747 135.088 79.2747 142.117 83.6096 146.454C87.9445 150.791 94.9702 150.791 99.3051 146.454L169.912 75.8141C178.578 67.1447 192.629 67.1447 201.294 75.8141C209.96 84.4834 209.96 98.5413 201.294 107.211L132.048 176.485C140.704 185.154 154.747 185.163 163.412 176.502L163.43 176.485L216.999 122.895C234.334 105.552 234.334 77.441 216.999 60.1023C199.664 42.7591 171.561 42.7591 154.235 60.1023L83.6096 130.751ZM193.455 83.652C189.121 79.3151 182.095 79.3151 177.764 83.652L107.148 154.292C98.492 162.961 84.4496 162.97 75.7843 154.315L75.7619 154.292C71.4315 149.96 64.4103 149.955 60.0754 154.288L60.0709 154.292C55.736 158.624 55.7315 165.653 60.0619 169.99L60.0709 169.999C77.4015 187.334 105.504 187.334 122.835 169.999L193.451 99.3503C197.786 95.0134 197.786 87.9844 193.455 83.652ZM75.7664 122.9L146.374 52.2599C150.704 47.923 150.704 40.894 146.374 36.5571C142.043 32.2247 135.022 32.2247 130.692 36.5571L60.0709 107.197C51.4101 115.867 37.3587 115.871 28.6934 107.202L28.6889 107.197C20.0236 98.5323 20.0146 84.4834 28.6755 75.8096L28.6889 75.7961L97.944 6.50875C89.2832 -2.16059 75.2363 -2.16509 66.5665 6.49976L66.5575 6.50875L12.998 60.1023C-4.33265 77.4455 -4.33265 105.557 12.998 122.895C30.3375 140.239 58.4268 140.239 75.7664 122.9ZM36.5367 99.3503C40.8671 103.683 47.8883 103.683 52.2187 99.3503L122.839 28.7057C131.5 20.0363 145.547 20.0318 154.212 28.6967L154.221 28.7057C158.556 33.0426 165.582 33.0426 169.912 28.7057C174.247 24.3688 174.247 17.3398 169.912 13.0074C152.577 -4.33579 124.483 -4.33579 107.148 13.0074L36.5367 83.652C32.2018 87.9844 32.2018 95.0134 36.5322 99.3503H36.5367Z" fill="#FAFAFA"/>
</svg>
