<svg width="30" height="40" viewBox="0 0 30 40" fill="none" xmlns="http://www.w3.org/2000/svg">
<path d="M24.7942 3.48473C25.2551 2.41452 24.9113 1.16465 23.9661 0.477221C23.0209 -0.210209 21.732 -0.147716 20.8493 0.617832L0.851283 18.1161C0.0701119 18.8035 -0.203298 19.9049 0.156041 20.8814C0.515379 21.8579 1.4606 22.4984 2.49955 22.4984H11.2096L5.2024 36.5126C4.74151 37.5828 5.08523 38.8327 6.03044 39.5201C6.97566 40.2076 8.26459 40.1451 9.14732 39.3795L29.1453 21.8813C29.9265 21.1939 30.2077 20.0924 29.8405 19.1238C29.4734 18.1551 28.5438 17.5067 27.497 17.5067H18.787L24.7942 3.48473Z" fill="#A3AEC0"/>
</svg>
